<svg height="512" viewBox="0 0 64 64" width="512" xmlns="http://www.w3.org/2000/svg"><g id="Apartment-2" data-name="Apartment"><path d="m9 8h24v48h-24z" fill="#c6c5ca"/><path d="m5 4h32v4h-32z" fill="#ed1c24"/><path d="m5 56h32v4h-32z" fill="#ed1c24"/><path d="m13 33h6v6h-6z" fill="#83d8f4"/><path d="m23 33h6v6h-6z" fill="#c2dff6"/><path d="m13 23h6v6h-6z" fill="#83d8f4"/><path d="m23 23h6v6h-6z" fill="#83d8f4"/><path d="m13 13h6v6h-6z" fill="#c2dff6"/><path d="m23 13h6v6h-6z" fill="#83d8f4"/><path d="m17 44h8v12h-8z" fill="#e0e0e2"/><path d="m39.344 44.611a3.96 3.96 0 0 1 1.273-4.811 3 3 0 1 1 4.766 0 3.96 3.96 0 0 1 1.273 4.807 5 5 0 1 1 -7.312 0z" fill="#91cc04"/><path d="m51.344 48.611a3.96 3.96 0 0 1 1.273-4.811 3 3 0 1 1 4.766 0 3.96 3.96 0 0 1 1.273 4.807 5 5 0 1 1 -7.312 0z" fill="#91cc04"/><path d="m52 23.5a2.5 2.5 0 0 0 -2.5-2.5 2.544 2.544 0 0 0 -.505.051c0-.017.005-.033.005-.051a2.993 2.993 0 0 0 -5.822-.982c-.06 0-.117-.018-.178-.018a3 3 0 0 0 0 6h7v-.05a2.5 2.5 0 0 0 2-2.45z" fill="#e0e0e2"/><path d="m62 59h-1a1 1 0 0 0 0 2h1a1 1 0 0 0 0-2z"/><path d="m19 40a1 1 0 0 0 1-1v-6a1 1 0 0 0 -1-1h-6a1 1 0 0 0 -1 1v6a1 1 0 0 0 1 1zm-5-6h4v4h-4z"/><path d="m23 40h6a1 1 0 0 0 1-1v-6a1 1 0 0 0 -1-1h-6a1 1 0 0 0 -1 1v6a1 1 0 0 0 1 1zm1-6h4v4h-4z"/><path d="m13 30h6a1 1 0 0 0 1-1v-6a1 1 0 0 0 -1-1h-6a1 1 0 0 0 -1 1v6a1 1 0 0 0 1 1zm1-6h4v4h-4z"/><path d="m23 30h6a1 1 0 0 0 1-1v-6a1 1 0 0 0 -1-1h-6a1 1 0 0 0 -1 1v6a1 1 0 0 0 1 1zm1-6h4v4h-4z"/><path d="m13 20h6a1 1 0 0 0 1-1v-6a1 1 0 0 0 -1-1h-6a1 1 0 0 0 -1 1v6a1 1 0 0 0 1 1zm1-6h4v4h-4z"/><path d="m23 20h6a1 1 0 0 0 1-1v-6a1 1 0 0 0 -1-1h-6a1 1 0 0 0 -1 1v6a1 1 0 0 0 1 1zm1-6h4v4h-4z"/><path d="m43 47a1 1 0 0 0 1-1v-1a1 1 0 0 0 -2 0v1a1 1 0 0 0 1 1z"/><path d="m61 52a5.955 5.955 0 0 0 -1.207-3.587 4.953 4.953 0 0 0 -1.136-4.808 3.909 3.909 0 0 0 .343-1.605 4 4 0 0 0 -8 0 3.909 3.909 0 0 0 .343 1.6 4.955 4.955 0 0 0 -1.136 4.809 5.975 5.975 0 0 0 3.793 9.501v1.09h-10v-5.09a5.976 5.976 0 0 0 3.793-9.5 4.953 4.953 0 0 0 -1.136-4.81 3.909 3.909 0 0 0 .343-1.6 4 4 0 0 0 -8 0 3.909 3.909 0 0 0 .343 1.6 4.955 4.955 0 0 0 -1.136 4.809 5.975 5.975 0 0 0 3.793 9.501v1.222l-1.445-.964a1 1 0 0 0 -1.11 1.664l2.555 1.703v1.465h-4v-3a1 1 0 0 0 -1-1h-3v-46h3a1 1 0 0 0 1-1v-4a1 1 0 0 0 -1-1h-32a1 1 0 0 0 -1 1v4a1 1 0 0 0 1 1h3v46h-3a1 1 0 0 0 -1 1v3h-2a1 1 0 0 0 0 2h56a1 1 0 0 0 0-2h-2v-1.09a6.006 6.006 0 0 0 5-5.91zm-22-4a3.978 3.978 0 0 1 1.077-2.709 1 1 0 0 0 .181-1.084 2.963 2.963 0 0 1 .957-3.6 1 1 0 0 0 .2-1.4 1.975 1.975 0 0 1 -.415-1.207 2 2 0 0 1 4 0 1.975 1.975 0 0 1 -.414 1.2 1 1 0 0 0 .2 1.4 2.96 2.96 0 0 1 .956 3.6 1 1 0 0 0 .182 1.084 3.969 3.969 0 0 1 -1.924 6.574v-2.858a1 1 0 0 0 -2 0v2.858a4 4 0 0 1 -3-3.858zm-33-43h30v2h-30zm4 4h22v46h-6v-11a1 1 0 0 0 -1-1h-8a1 1 0 0 0 -1 1v11h-6zm14 46h-6v-10h6zm-18 4v-2h30v2zm45-7a3.978 3.978 0 0 1 1.077-2.709 1 1 0 0 0 .181-1.084 2.963 2.963 0 0 1 .957-3.6 1 1 0 0 0 .2-1.4 1.975 1.975 0 0 1 -.415-1.207 2 2 0 0 1 4 0 1.975 1.975 0 0 1 -.414 1.2 1 1 0 0 0 .2 1.4 2.96 2.96 0 0 1 .956 3.6 1 1 0 0 0 .182 1.084 3.969 3.969 0 0 1 -1.924 6.574v-2.858a1 1 0 0 0 -2 0v2.858a4 4 0 0 1 -3-3.858z"/><path d="m43 27h7a.929.929 0 0 0 .5-.145 3.5 3.5 0 0 0 -.619-6.834 3.99 3.99 0 0 0 -7.344-.994 4 4 0 0 0 .463 7.973zm-.035-6 .148.016a.989.989 0 0 0 1.01-.669 1.992 1.992 0 0 1 3.877.608c0 .024 0 .049-.005.068a1 1 0 0 0 1.2 1.008 1.528 1.528 0 0 1 1.805 1.469 1.5 1.5 0 0 1 -1.2 1.47 1.088 1.088 0 0 0 -.112.03h-6.688a2 2 0 0 1 -.035-4z"/></g></svg>