<svg height="512" viewBox="0 0 512 512" width="512" xmlns="http://www.w3.org/2000/svg"><g id="Flat"><path d="m64 392h48v56h-48z" fill="#91d3ee"/><path d="m104 392h8v56h-8z" fill="#37a5ca"/><path d="m112 336h48v112h-48z" fill="#91d3ee"/><path d="m160 272h48v176h-48z" fill="#91d3ee"/><path d="m208 216h48v232h-48z" fill="#91d3ee"/><path d="m256 192h48v256h-48z" fill="#91d3ee"/><path d="m304 216h48v232h-48z" fill="#91d3ee"/><path d="m352 272h48v176h-48z" fill="#91d3ee"/><path d="m400 352h48v96h-48z" fill="#91d3ee"/><path d="m448 400h40v48h-40z" fill="#91d3ee"/><path d="m152 392h8v56h-8z" fill="#37a5ca"/><path d="m160 448v-112h-8v112" fill="#37a5ca"/><path d="m208 448v-176h-8v176" fill="#37a5ca"/><path d="m256 448v-232h-8v232" fill="#37a5ca"/><path d="m304 448v-256h-8v256" fill="#37a5ca"/><path d="m352 448v-232h-8v232" fill="#37a5ca"/><path d="m400 448v-176h-8v176" fill="#37a5ca"/><path d="m448 448v-96h-8v96" fill="#37a5ca"/><path d="m496 448v-48h-8v48" fill="#37a5ca"/><path d="m496 440c-43.354 0-75.397-48.585-109.32129-100.02246-32.41699-49.15234-65.9375-99.97754-106.67871-99.97754s-74.26172 50.8252-106.67871 99.97754c-33.92429 51.43746-65.96729 100.02246-109.32129 100.02246v-16c34.74023 0 65.86475-47.19238 95.96484-92.832 34.74854-52.68655 70.68016-107.168 120.03516-107.168s85.28662 54.48145 120.03516 107.168c30.10009 45.63962 61.22461 92.832 95.96484 92.832z" fill="#2d80ba"/><path d="m272 104h16v16h-16z" fill="#394f5a"/><path d="m88 72h48v16h-48z" fill="#394f5a"/><path d="m296 136h-32v-32h-16v64h16v-16h32v16h16v-64h-16z" fill="#f5e3a1"/><path d="m104 104h16v208h-16z" fill="#f5e3a1"/><path d="m440 104h16v208h-16z" fill="#f5e3a1"/><g fill="#394f5a"><path d="m424 72h48v16h-48z"/><path d="m72 440v-424h-16v56h-16v16h16v80h-16v16h16v80h-16v16h16v80h-16v16h16v64h-16v16h16v16h16v-16h80v16h16v-16h80v16h16v-16h80v16h16v-16h80v16h16v-16h40v-16z"/><path d="m40 480h48v16h-48z"/><path d="m136 480h48v16h-48z"/><path d="m232 480h48v16h-48z"/><path d="m328 480h48v16h-48z"/><path d="m424 480h48v16h-48z"/><path d="m16 440h16v16h-16z"/><path d="m16 360h16v16h-16z"/><path d="m16 264h16v16h-16z"/><path d="m16 168h16v16h-16z"/><path d="m16 72h16v16h-16z"/></g></g></svg>